<svg width="20" height="20" viewBox="0 0 20 20" fill="none" xmlns="http://www.w3.org/2000/svg">
<path d="M5.8335 14.1667L5.8335 10.8333" stroke="#5B6078" stroke-width="1.5" stroke-linecap="round"/>
<path d="M10 14.1667L10 5.83333" stroke="#5B6078" stroke-width="1.5" stroke-linecap="round"/>
<path d="M14.1665 14.1667L14.1665 9.16667" stroke="#5B6078" stroke-width="1.5" stroke-linecap="round"/>
<path d="M2.0835 9.99999C2.0835 6.26804 2.0835 4.40207 3.24287 3.2427C4.40223 2.08333 6.26821 2.08333 10.0002 2.08333C13.7321 2.08333 15.5981 2.08333 16.7575 3.2427C17.9168 4.40207 17.9168 6.26804 17.9168 9.99999C17.9168 13.7319 17.9168 15.5979 16.7575 16.7573C15.5981 17.9167 13.7321 17.9167 10.0002 17.9167C6.26821 17.9167 4.40223 17.9167 3.24287 16.7573C2.0835 15.5979 2.0835 13.7319 2.0835 9.99999Z" stroke="#5B6078" stroke-width="1.5" stroke-linejoin="round"/>
</svg>
