<svg width="20" height="20" viewBox="0 0 20 20" fill="none" xmlns="http://www.w3.org/2000/svg">
<g clip-path="url(#clip0_212_41154)">
<path d="M1.6665 11.6667C1.6665 8.74446 1.6665 7.28336 2.42314 6.29994C2.56165 6.1199 2.71641 5.95482 2.88519 5.80707C3.80715 5 5.17694 5 7.9165 5H12.0832C14.8227 5 16.1925 5 17.1145 5.80707C17.2833 5.95482 17.438 6.1199 17.5765 6.29994C18.3332 7.28336 18.3332 8.74446 18.3332 11.6667C18.3332 14.5889 18.3332 16.05 17.5765 17.0334C17.438 17.2134 17.2833 17.3785 17.1145 17.5263C16.1925 18.3333 14.8227 18.3333 12.0832 18.3333H7.9165C5.17694 18.3333 3.80715 18.3333 2.88519 17.5263C2.71641 17.3785 2.56165 17.2134 2.42314 17.0334C1.6665 16.05 1.6665 14.5889 1.6665 11.6667Z" stroke="#5B6078" stroke-width="1.5"/>
<path d="M13.3332 5.00001C13.3332 3.42866 13.3332 2.64298 12.845 2.15483C12.3569 1.66667 11.5712 1.66667 9.99984 1.66667C8.42849 1.66667 7.64281 1.66667 7.15466 2.15483C6.6665 2.64298 6.6665 3.42866 6.6665 5.00001" stroke="#5B6078" stroke-width="1.5" stroke-linecap="round" stroke-linejoin="round"/>
<path d="M10.0002 9.16666C9.07969 9.16666 8.3335 9.72631 8.3335 10.4167C8.3335 11.107 9.07969 11.6667 10.0002 11.6667C10.9206 11.6667 11.6668 12.2263 11.6668 12.9167C11.6668 13.607 10.9206 14.1667 10.0002 14.1667M10.0002 9.16666C10.7258 9.16666 11.3432 9.5145 11.572 9.99999M10.0002 9.16666V8.33333M10.0002 14.1667C9.27449 14.1667 8.65713 13.8188 8.42833 13.3333M10.0002 14.1667V15" stroke="#5B6078" stroke-width="1.5" stroke-linecap="round"/>
<path d="M5 10H1.66667" stroke="#5B6078" stroke-width="1.5" stroke-linecap="round"/>
<path d="M18.3335 10L15.0002 10" stroke="#5B6078" stroke-width="1.5" stroke-linecap="round"/>
</g>
<defs>
<clipPath id="clip0_212_41154">
<rect width="20" height="20" fill="white"/>
</clipPath>
</defs>
</svg>
