<svg width="19" height="18" viewBox="0 0 19 18" fill="none" xmlns="http://www.w3.org/2000/svg">
<path d="M8.72534 16.5835H7.83919C4.49731 16.5835 2.82638 16.5835 1.78819 15.2954C0.75 14.0072 0.75 11.9339 0.75 7.78725V5.09934C0.75 3.50152 0.75 2.70261 1.01961 2.10314C1.2118 1.67582 1.49597 1.32322 1.84036 1.08475C2.32349 0.750214 2.96736 0.750214 4.25509 0.750214C5.08009 0.750214 5.49259 0.750214 5.85369 0.91823C6.67814 1.30184 7.01811 2.23114 7.39013 3.15435L7.83919 4.26873M4.92011 4.26873H12.0406C13.5341 4.26873 14.2808 4.26873 14.8172 4.71347C15.0494 4.90599 15.2488 5.15339 15.404 5.44153C15.6456 5.89025 15.7243 6.45757 15.75 7.34744" stroke="#5B6078" stroke-width="1.5" stroke-linecap="round"/>
<path d="M2.91316 9.56312C3.2726 8.6055 3.45232 8.12669 3.80306 7.82601C4.36922 7.34065 5.1832 7.422 5.88074 7.422H13.4605C15.5245 7.422 16.5565 7.422 17.0715 8.08611C17.9555 9.22613 16.9126 11.0754 16.4925 12.1946C15.7394 14.201 15.3628 15.2043 14.6128 15.8162C13.47 16.7485 11.8077 16.5698 10.4284 16.5698H7.36453C4.412 16.5698 2.93574 16.5698 2.16802 15.6557C0.750784 13.9683 2.27576 11.2613 2.91316 9.56312Z" stroke="#5B6078" stroke-width="1.5" stroke-linecap="round"/>
</svg>
